<svg width="60" height="60" viewBox="0 0 60 60" fill="none" xmlns="http://www.w3.org/2000/svg">
<path d="M47.5 28.0673H17.85L26.925 17.4797C27.3493 16.9838 27.5535 16.3444 27.4926 15.7023C27.4316 15.0602 27.1105 14.4679 26.6 14.0557C26.0895 13.6435 25.4313 13.4452 24.7702 13.5044C24.1091 13.5636 23.4993 13.8755 23.075 14.3714L10.575 28.9415C10.4909 29.0574 10.4157 29.1791 10.35 29.3058C10.35 29.4272 10.35 29.5 10.175 29.6214C10.0617 29.8999 10.0024 30.1963 10 30.4957C10.0024 30.795 10.0617 31.0914 10.175 31.3699C10.175 31.4913 10.175 31.5641 10.35 31.6855C10.4157 31.8122 10.4909 31.9339 10.575 32.0498L23.075 46.6199C23.3101 46.894 23.6044 47.1145 23.9371 47.2656C24.2698 47.4167 24.6327 47.4947 25 47.4941C25.5841 47.4952 26.1502 47.2976 26.6 46.9356C26.8531 46.7318 27.0624 46.4814 27.2158 46.1989C27.3692 45.9163 27.4637 45.6072 27.4938 45.2891C27.524 44.9711 27.4893 44.6503 27.3917 44.3453C27.2941 44.0403 27.1355 43.757 26.925 43.5116L17.85 32.924H47.5C48.163 32.924 48.7989 32.6682 49.2678 32.2128C49.7366 31.7574 50 31.1397 50 30.4957C50 29.8516 49.7366 29.234 49.2678 28.7786C48.7989 28.3231 48.163 28.0673 47.5 28.0673Z" fill="white"/>
</svg>
