<svg width="60" height="60" viewBox="0 0 60 60" fill="none" xmlns="http://www.w3.org/2000/svg">
<path d="M12.5 27.5H42.15L33.075 16.6C32.6507 16.0894 32.4465 15.4312 32.5074 14.7701C32.5684 14.1091 32.8895 13.4993 33.4 13.075C33.9105 12.6506 34.5687 12.4465 35.2298 12.5074C35.8909 12.5684 36.5007 12.8894 36.925 13.4L49.425 28.4C49.5091 28.5193 49.5843 28.6446 49.65 28.775C49.65 28.9 49.65 28.975 49.825 29.1C49.9383 29.3866 49.9976 29.6917 50 30C49.9976 30.3082 49.9383 30.6133 49.825 30.9C49.825 31.025 49.825 31.1 49.65 31.225C49.5843 31.3553 49.5091 31.4806 49.425 31.6L36.925 46.6C36.6899 46.8822 36.3956 47.1091 36.0629 47.2647C35.7302 47.4202 35.3673 47.5006 35 47.5C34.4159 47.5011 33.8498 47.2977 33.4 46.925C33.1469 46.7151 32.9376 46.4573 32.7842 46.1665C32.6308 45.8756 32.5363 45.5573 32.5062 45.2299C32.476 44.9024 32.5107 44.5723 32.6083 44.2583C32.7059 43.9442 32.8645 43.6526 33.075 43.4L42.15 32.5H12.5C11.837 32.5 11.2011 32.2366 10.7322 31.7677C10.2634 31.2989 10 30.663 10 30C10 29.3369 10.2634 28.701 10.7322 28.2322C11.2011 27.7633 11.837 27.5 12.5 27.5Z" fill="white"/>
</svg>
